<svg id="Layer_1" xmlns="http://www.w3.org/2000/svg" width="1220.1" height="373.7" viewBox="0 0 1220.1 373.7"><style>.st0{opacity:.37;fill:url(#SVGID_1_)}.st1,.st2{fill:none;stroke:#008fd9;stroke-width:2;stroke-miterlimit:10}.st2{stroke:url(#SVGID_2_)}.st3{opacity:.37}.st3,.st4{fill:#008fd9}.st5{fill:#0075c9}.st6{fill:#fff}.st7{font-family:&apos;ProximaNova-Semibold&apos;}.st8{font-size:10px}.st10,.st9{fill:none;stroke:url(#SVGID_3_);stroke-width:2;stroke-miterlimit:10}.st10{stroke:url(#SVGID_4_)}</style><linearGradient id="SVGID_1_" gradientUnits="userSpaceOnUse" x1="610.088" y1="373.721" x2="610.088" y2=".721"><stop offset="0" stop-color="#007BCE"/><stop offset="1" stop-color="#008FD9"/></linearGradient><path class="st0" d="M.1 331.3l53.4-5 70.9-45.6 37 18.5 83.2-7.5 33.9-9 77.1-8.2 45-31.1 25.9 4.3 80.1-41.6 49.3-4.5 33.9 49.9 30.9-1.5 49.3-15.6 40.1 14.8 36.9-49.8 40.1 35 43.2-41.4 30.8-18.3h40l43.2-7.7 43.2-37 59.6-18 56.1-48.2 37.9-15 41-12 38-36.1v373H.1z"/><path class="st1" d="M.1 331.3l53.4-4.7 70.9-45.8 37 18.4 83.2-7.5 33.9-9 77.1-8.2 45-31.1 25.9 4.3 80.1-41.6 49.3-4.5 33.9 49.9 30.9-1.5 49.3-15.6 40.1 14.8 36.9-49.8 40.1 35 43.2-40.9 30.8-17.8h40l43.2-8.2 43.2-37.2 59.6-18.2 56.1-48.2 37.9-15.1 40.5-12L1219.1.7"/><linearGradient id="SVGID_2_" gradientUnits="userSpaceOnUse" x1="124.088" y1="237.721" x2="124.088" y2="280.721"><stop offset="0" stop-color="#0075C9"/><stop offset="1" stop-color="#008FD9"/></linearGradient><path class="st2" d="M124.1 280.7v-43"/><circle class="st3" cx="124.1" cy="282" r="7"/><circle class="st4" cx="124.1" cy="282" r="4"/><circle class="st5" cx="124.1" cy="237" r="2"/><text transform="translate(132.088 242)" class="st6 st7 st8">+.24%</text><linearGradient id="SVGID_3_" gradientUnits="userSpaceOnUse" x1="401.088" y1="198.721" x2="401.088" y2="241.721"><stop offset="0" stop-color="#0075C9"/><stop offset="1" stop-color="#008FD9"/></linearGradient><path class="st9" d="M401.1 241.7v-43"/><circle class="st3" cx="401.1" cy="243" r="7"/><circle class="st4" cx="401.1" cy="243" r="4"/><circle class="st5" cx="401.1" cy="198" r="2"/><text transform="translate(409.088 203)" class="st6 st7 st8">+1.03%</text><g><linearGradient id="SVGID_4_" gradientUnits="userSpaceOnUse" x1="987.088" y1="85.721" x2="987.088" y2="128.721"><stop offset="0" stop-color="#0075C9"/><stop offset="1" stop-color="#008FD9"/></linearGradient><path class="st10" d="M987.1 128.7v-43"/><circle class="st3" cx="987.1" cy="130" r="7"/><circle class="st4" cx="987.1" cy="130" r="4"/><circle class="st5" cx="987.1" cy="85" r="2"/><text transform="translate(996.088 90)" class="st6 st7 st8">+5.26%</text></g></svg>